{"accessors":[{"bufferView":0,"byteOffset":0,"componentType":5126,"count":24,"max":[30,1,30],"min":[-30,-1,-30],"normalized":false,"type":"VEC3"},{"bufferView":1,"byteOffset":0,"componentType":5126,"count":24,"max":[1,0,1,1],"min":[-1,-0.000015,-1,1],"normalized":false,"type":"VEC4"},{"bufferView":2,"byteOffset":0,"componentType":5126,"count":24,"max":[1,1,1],"min":[-1,-1,-1],"normalized":false,"type":"VEC3"},{"bufferView":3,"byteOffset":0,"componentType":5126,"count":24,"max":[1,1],"min":[0,0],"normalized":false,"type":"VEC2"},{"bufferView":4,"byteOffset":0,"componentType":5125,"count":36,"max":[23],"min":[0],"normalized":false,"type":"SCALAR"},{"bufferView":5,"byteOffset":0,"componentType":5126,"count":317,"max":[0.400052,0.747616,0.356409],"min":[-0.354287,0.398919,-0.397929],"normalized":false,"type":"VEC3"},{"bufferView":6,"byteOffset":0,"componentType":5126,"count":317,"max":[0.999855,1,0.027072,1],"min":[-0.999978,-1,-0.045157,1],"normalized":false,"type":"VEC4"},{"bufferView":7,"byteOffset":0,"componentType":5126,"count":317,"max":[0.999855,1,0.999854],"min":[-0.999855,-1,-0.999854],"normalized":false,"type":"VEC3"},{"bufferView":8,"byteOffset":0,"componentType":5126,"count":317,"max":[1,1],"min":[0,0],"normalized":false,"type":"VEC2"},{"bufferView":9,"byteOffset":0,"componentType":5125,"count":1296,"max":[272],"min":[0],"normalized":false,"type":"SCALAR"},{"bufferView":10,"byteOffset":0,"componentType":5126,"count":729,"max":[1.028993,0.431451,1.95729],"min":[-0.995979,-0.47389,-1.04095],"normalized":false,"type":"VEC3"},{"bufferView":11,"byteOffset":0,"componentType":5126,"count":729,"max":[0.945029,1,0.944642,1],"min":[-0.944991,-0.999663,-0.999417,-1],"normalized":false,"type":"VEC4"},{"bufferView":12,"byteOffset":0,"componentType":5126,"count":729,"max":[0.998099,0.998987,0.998986],"min":[-0.998099,-0.998986,-0.995941],"normalized":false,"type":"VEC3"},{"bufferView":13,"byteOffset":0,"componentType":5126,"count":729,"max":[1,1],"min":[0,0],"normalized":false,"type":"VEC2"},{"bufferView":14,"byteOffset":0,"componentType":5125,"count":2436,"max":[686],"min":[0],"normalized":false,"type":"SCALAR"},{"bufferView":15,"byteOffset":0,"componentType":5126,"count":310,"max":[0.724371,0.657518,0.680727],"min":[-0.678605,-0.05592,-0.722248],"normalized":false,"type":"VEC3"},{"bufferView":16,"byteOffset":0,"componentType":5126,"count":310,"max":[0.999855,1,0.02484,1],"min":[-0.99998,-1,-0.048809,1],"normalized":false,"type":"VEC4"},{"bufferView":17,"byteOffset":0,"componentType":5126,"count":310,"max":[0.999855,1,0.999854],"min":[-0.999855,-1,-0.999854],"normalized":false,"type":"VEC3"},{"bufferView":18,"byteOffset":0,"componentType":5126,"count":310,"max":[1,1],"min":[0,0],"normalized":false,"type":"VEC2"},{"bufferView":19,"byteOffset":0,"componentType":5125,"count":1296,"max":[272],"min":[0],"normalized":false,"type":"SCALAR"},{"bufferView":20,"byteOffset":0,"componentType":5126,"count":522,"max":[0.5,1,0.5],"min":[-0.5,-1,-0.5],"normalized":false,"type":"VEC3"},{"bufferView":21,"byteOffset":0,"componentType":5126,"count":522,"max":[1,0,1,1],"min":[-1,-0.000022,-1,1],"normalized":false,"type":"VEC4"},{"bufferView":22,"byteOffset":0,"componentType":5126,"count":522,"max":[1,1,1],"min":[-1,-1,-1],"normalized":false,"type":"VEC3"},{"bufferView":23,"byteOffset":0,"componentType":5126,"count":522,"max":[1,1],"min":[0,0],"normalized":false,"type":"VEC2"},{"bufferView":24,"byteOffset":0,"componentType":5125,"count":2304,"max":[521],"min":[0],"normalized":false,"type":"SCALAR"},{"bufferView":25,"byteOffset":0,"componentType":5126,"count":522,"max":[0.5,1,0.5],"min":[-0.5,-1,-0.5],"normalized":false,"type":"VEC3"},{"bufferView":26,"byteOffset":0,"componentType":5126,"count":522,"max":[1,0,1,1],"min":[-1,-0.000022,-1,1],"normalized":false,"type":"VEC4"},{"bufferView":27,"byteOffset":0,"componentType":5126,"count":522,"max":[1,1,1],"min":[-1,-1,-1],"normalized":false,"type":"VEC3"},{"bufferView":28,"byteOffset":0,"componentType":5126,"count":522,"max":[1,1],"min":[0,0],"normalized":false,"type":"VEC2"},{"bufferView":29,"byteOffset":0,"componentType":5125,"count":2304,"max":[521],"min":[0],"normalized":false,"type":"SCALAR"},{"bufferView":30,"byteOffset":0,"componentType":5126,"count":522,"max":[0.5,1,0.5],"min":[-0.5,-1,-0.5],"normalized":false,"type":"VEC3"},{"bufferView":31,"byteOffset":0,"componentType":5126,"count":522,"max":[1,0,1,1],"min":[-1,-0.000022,-1,1],"normalized":false,"type":"VEC4"},{"bufferView":32,"byteOffset":0,"componentType":5126,"count":522,"max":[1,1,1],"min":[-1,-1,-1],"normalized":false,"type":"VEC3"},{"bufferView":33,"byteOffset":0,"componentType":5126,"count":522,"max":[1,1],"min":[0,0],"normalized":false,"type":"VEC2"},{"bufferView":34,"byteOffset":0,"componentType":5125,"count":2304,"max":[521],"min":[0],"normalized":false,"type":"SCALAR"},{"bufferView":35,"byteOffset":0,"componentType":5126,"count":522,"max":[0.5,1,0.5],"min":[-0.5,-1,-0.5],"normalized":false,"type":"VEC3"},{"bufferView":36,"byteOffset":0,"componentType":5126,"count":522,"max":[1,0,1,1],"min":[-1,-0.000022,-1,1],"normalized":false,"type":"VEC4"},{"bufferView":37,"byteOffset":0,"componentType":5126,"count":522,"max":[1,1,1],"min":[-1,-1,-1],"normalized":false,"type":"VEC3"},{"bufferView":38,"byteOffset":0,"componentType":5126,"count":522,"max":[1,1],"min":[0,0],"normalized":false,"type":"VEC2"},{"bufferView":39,"byteOffset":0,"componentType":5125,"count":2304,"max":[521],"min":[0],"normalized":false,"type":"SCALAR"},{"bufferView":40,"byteOffset":0,"componentType":5126,"count":3,"max":[1.2],"min":[0.1],"normalized":false,"type":"SCALAR"},{"bufferView":41,"byteOffset":0,"componentType":5126,"count":3,"max":[0,0.65,0],"min":[0,0,0],"normalized":false,"type":"VEC3"},{"bufferView":42,"byteOffset":0,"componentType":5126,"count":2,"max":[0.5],"min":[0.1],"normalized":false,"type":"SCALAR"},{"bufferView":43,"byteOffset":0,"componentType":5126,"count":2,"max":[0,0.65,0],"min":[0,0,0],"normalized":false,"type":"VEC3"}],"animations":[{"channels":[{"sampler":0,"target":{"node":11,"path":"translation"}}],"name":"RESET","samplers":[{"input":40,"interpolation":"LINEAR","output":41}]},{"channels":[{"sampler":0,"target":{"node":11,"path":"translation"}}],"name":"flappy birb","samplers":[{"input":42,"interpolation":"LINEAR","output":43}]}],"asset":{"generator":"Godot Engine v4.0.1.stable.official@cacf49999e3fb37281d66cc591ca8bebc5712d4d","version":"2.0"},"bufferViews":[{"buffer":0,"byteLength":288,"byteOffset":0},{"buffer":0,"byteLength":384,"byteOffset":288},{"buffer":0,"byteLength":288,"byteOffset":672},{"buffer":0,"byteLength":192,"byteOffset":960},{"buffer":0,"byteLength":144,"byteOffset":1152},{"buffer":0,"byteLength":3804,"byteOffset":1296},{"buffer":0,"byteLength":5072,"byteOffset":5100},{"buffer":0,"byteLength":3804,"byteOffset":10172},{"buffer":0,"byteLength":2536,"byteOffset":13976},{"buffer":0,"byteLength":5184,"byteOffset":16512},{"buffer":0,"byteLength":8748,"byteOffset":21696},{"buffer":0,"byteLength":11664,"byteOffset":30444},{"buffer":0,"byteLength":8748,"byteOffset":42108},{"buffer":0,"byteLength":5832,"byteOffset":50856},{"buffer":0,"byteLength":9744,"byteOffset":56688},{"buffer":0,"byteLength":3720,"byteOffset":66432},{"buffer":0,"byteLength":4960,"byteOffset":70152},{"buffer":0,"byteLength":3720,"byteOffset":75112},{"buffer":0,"byteLength":2480,"byteOffset":78832},{"buffer":0,"byteLength":5184,"byteOffset":81312},{"buffer":0,"byteLength":6264,"byteOffset":86496},{"buffer":0,"byteLength":8352,"byteOffset":92760},{"buffer":0,"byteLength":6264,"byteOffset":101112},{"buffer":0,"byteLength":4176,"byteOffset":107376},{"buffer":0,"byteLength":9216,"byteOffset":111552},{"buffer":0,"byteLength":6264,"byteOffset":120768},{"buffer":0,"byteLength":8352,"byteOffset":127032},{"buffer":0,"byteLength":6264,"byteOffset":135384},{"buffer":0,"byteLength":4176,"byteOffset":141648},{"buffer":0,"byteLength":9216,"byteOffset":145824},{"buffer":0,"byteLength":6264,"byteOffset":155040},{"buffer":0,"byteLength":8352,"byteOffset":161304},{"buffer":0,"byteLength":6264,"byteOffset":169656},{"buffer":0,"byteLength":4176,"byteOffset":175920},{"buffer":0,"byteLength":9216,"byteOffset":180096},{"buffer":0,"byteLength":6264,"byteOffset":189312},{"buffer":0,"byteLength":8352,"byteOffset":195576},{"buffer":0,"byteLength":6264,"byteOffset":203928},{"buffer":0,"byteLength":4176,"byteOffset":210192},{"buffer":0,"byteLength":9216,"byteOffset":214368},{"buffer":0,"byteLength":12,"byteOffset":223584},{"buffer":0,"byteLength":36,"byteOffset":223596},{"buffer":0,"byteLength":8,"byteOffset":223632},{"buffer":0,"byteLength":24,"byteOffset":223640}],"buffers":[{"byteLength":223664,"uri":"main0.bin"}],"cameras":[{"perspective":{"yfov":1.04719758033752,"zfar":4000,"znear":0.0500000007450581},"type":"perspective"}],"extensions":{"KHR_lights_punctual":{"lights":[{"color":[1,1,1],"intensity":1,"range":340282346638528860000000000000000000000,"type":"directional"}]}},"extensionsUsed":["KHR_lights_punctual"],"materials":[{"extensions":{},"pbrMetallicRoughness":{"baseColorFactor":[0.99999988079071,0.99999988079071,0.99999988079071,1],"metallicFactor":0,"roughnessFactor":1}},{"doubleSided":true,"emissiveFactor":[0,0,0],"extensions":{},"name":"pupil","pbrMetallicRoughness":{"baseColorFactor":[0,0,0,1],"metallicFactor":0,"roughnessFactor":0.5}},{"doubleSided":true,"emissiveFactor":[0,0,0],"extensions":{},"name":"body","pbrMetallicRoughness":{"baseColorFactor":[0.799999892711639,0.102670103311539,0,1],"metallicFactor":0,"roughnessFactor":0.5}},{"doubleSided":true,"emissiveFactor":[0,0,0],"extensions":{},"name":"eye","pbrMetallicRoughness":{"baseColorFactor":[0.912214815616608,0.912214815616608,0.912214815616608,1],"metallicFactor":0,"roughnessFactor":0.5}},{"extensions":{},"pbrMetallicRoughness":{"baseColorFactor":[0.783537268638611,0.291771054267883,0.491021156311035,1],"metallicFactor":0,"roughnessFactor":1}}],"meshes":[{"extras":{"targetNames":[]},"primitives":[{"attributes":{"NORMAL":2,"POSITION":0,"TANGENT":1,"TEXCOORD_0":3},"indices":4,"material":0,"mode":4}]},{"extras":{"targetNames":[]},"primitives":[{"attributes":{"NORMAL":7,"POSITION":5,"TANGENT":6,"TEXCOORD_0":8},"indices":9,"material":1,"mode":4},{"attributes":{"NORMAL":12,"POSITION":10,"TANGENT":11,"TEXCOORD_0":13},"indices":14,"material":2,"mode":4},{"attributes":{"NORMAL":17,"POSITION":15,"TANGENT":16,"TEXCOORD_0":18},"indices":19,"material":3,"mode":4}]},{"extras":{"targetNames":[]},"primitives":[{"attributes":{"NORMAL":22,"POSITION":20,"TANGENT":21,"TEXCOORD_0":23},"indices":24,"material":4,"mode":4}]},{"extras":{"targetNames":[]},"primitives":[{"attributes":{"NORMAL":27,"POSITION":25,"TANGENT":26,"TEXCOORD_0":28},"indices":29,"material":4,"mode":4}]},{"extras":{"targetNames":[]},"primitives":[{"attributes":{"NORMAL":32,"POSITION":30,"TANGENT":31,"TEXCOORD_0":33},"indices":34,"material":4,"mode":4}]},{"extras":{"targetNames":[]},"primitives":[{"attributes":{"NORMAL":37,"POSITION":35,"TANGENT":36,"TEXCOORD_0":38},"indices":39,"material":4,"mode":4}]}],"nodes":[{"children":[1,8,9,17,19,24,26,27],"extensions":{},"name":"Main"},{"children":[2,3,4,5,6,7],"extensions":{},"name":"Ground"},{"extensions":{},"name":"CollisionShape3D","translation":[0,-1,0]},{"extensions":{},"mesh":0,"name":"MeshInstance3D","translation":[0,-1,0]},{"extensions":{},"name":"Wall","translation":[25,0,0]},{"extensions":{},"name":"Wall3","translation":[2,0,23]},{"extensions":{},"name":"Wall4","translation":[-25,0,0]},{"extensions":{},"name":"Wall5","translation":[2,0,-23]},{"extensions":{"KHR_lights_punctual":{"light":0}},"name":"DirectionalLight3D","rotation":[-0.65143644809723,0,0,0.758703172206879],"translation":[0,56,0]},{"children":[10,13,14,16],"extensions":{},"name":"Player","translation":[0,2,15]},{"children":[11],"extensions":{},"name":"Pivot"},{"children":[12],"extensions":{},"name":"Character","rotation":[-0.07845889031887,0,0,0.996917366981506],"translation":[0,0.349999994039536,0]},{"extensions":{},"mesh":1,"name":"Sphere001"},{"extensions":{},"name":"CollisionShape3D2","scale":[2.1157500743866,1.53442001342773,2.1157500743866]},{"children":[15],"extensions":{},"name":"MobDetector","translation":[0,-0.08120059967041,0]},{"extensions":{},"name":"CollisionShape3D3","scale":[2.71600008010864,0.566428005695343,2.71600008010864],"translation":[0,0.437867999076843,0]},{"extensions":{},"name":"AnimationPlayer"},{"children":[18],"extensions":{},"name":"CameraPivot"},{"camera":0,"extensions":{},"name":"Camera3D","rotation":[-0.38268345594406,0,0,0.923879563808441],"translation":[0,9,23]},{"children":[20,21,22,23],"extensions":{},"name":"Cylinders"},{"extensions":{},"mesh":2,"name":"MeshInstance3D2","translation":[24,1,-23]},{"extensions":{},"mesh":3,"name":"MeshInstance3D22","translation":[24,1,23]},{"extensions":{},"mesh":4,"name":"MeshInstance3D3","translation":[-24,1,-23]},{"extensions":{},"mesh":5,"name":"MeshInstance3D4","translation":[-24,1,23]},{"children":[25],"extensions":{},"name":"Spawnpath","translation":[0,1,8]},{"extensions":{},"name":"Spawnlocation","rotation":[0,0.70710676908493,0,0.70710676908493],"translation":[-24,0,15]},{"extensions":{},"name":"MobTimer"},{"children":[28,29],"extensions":{},"name":"UI"},{"extensions":{},"name":"ScoreLabel"},{"children":[30],"extensions":{},"name":"Retry"},{"extensions":{},"name":"Label"}],"scene":0,"scenes":[{"nodes":[0]}]}